<svg xmlns="http://www.w3.org/2000/svg" width="332.244" height="171.367" viewBox="0 0 332.244 171.367">
  <g id="Build_a_website" data-name="Build a website" transform="translate(-5 -75.211)">
    <rect id="Rectangle_11" data-name="Rectangle 11" width="120.533" height="127.824" transform="translate(216.02 117.966)" fill="#9ef2eb"/>
    <rect id="Rectangle_12" data-name="Rectangle 12" width="23.546" height="23.546" transform="translate(247.299 75.949)" fill="#fc943f"/>
    <rect id="Rectangle_13" data-name="Rectangle 13" width="23.546" height="23.546" transform="translate(223.754 75.949)" fill="#9ef2eb"/>
    <rect id="Rectangle_14" data-name="Rectangle 14" width="23.546" height="23.546" transform="translate(200.159 75.949)" fill="#ffc5ff"/>
    <rect id="Rectangle_15" data-name="Rectangle 15" width="189.15" height="25.023" transform="translate(81.694 176.337)" fill="#ffc5ff"/>
    <rect id="Rectangle_16" data-name="Rectangle 16" width="118.465" height="23.546" transform="translate(81.694 75.949)"/>
    <rect id="Rectangle_17" data-name="Rectangle 17" width="189.15" height="76.842" transform="translate(81.694 99.495)" fill="#fff"/>
    <rect id="Rectangle_18" data-name="Rectangle 18" width="49.751" height="58.469" transform="translate(92.236 108.804)" fill="#fff"/>
    <circle id="Ellipse_9" data-name="Ellipse 9" cx="27.831" cy="27.831" r="27.831" transform="translate(61.449 138.408)" fill="#9ef2eb"/>
    <circle id="Ellipse_10" data-name="Ellipse 10" cx="9.507" cy="9.507" r="9.507" transform="translate(236.069 160.033)" fill="#9ef2eb"/>
    <circle id="Ellipse_11" data-name="Ellipse 11" cx="9.507" cy="9.507" r="9.507" transform="translate(286.655 160.033)" fill="#fc943f"/>
    <path id="Tracé_96" data-name="Tracé 96" d="M128.653,229.745l29.6-44.382,29.653,44.382Z" transform="translate(18.012 16.046)" fill="#ffc5ff"/>
    <rect id="Rectangle_19" data-name="Rectangle 19" width="85.364" height="20.393" transform="translate(225.872 188.898)" fill="#fff"/>
    <path id="Tracé_97" data-name="Tracé 97" d="M109.265,166.059,50.4,232.606l58.862-.049Z" transform="translate(6.614 13.234)" fill="#fc943f"/>
    <path id="Tracé_98" data-name="Tracé 98" d="M43.358,180.529l9.95-11.625-1.182-1.182a4,4,0,0,1-.1-5.614c2.512-2.808,5.566-.591,6.157.1.687.837,7.094,7.585,7.094,7.585l-22.807,27.09h2.956s4.334.788,5.664,4.187a9.116,9.116,0,0,1,.049,5.418l-7.98,16.946,7.191,9.9H27.1l10.884-23.053-6.454-.246L18.778,224.861l5.024,8.523H11.832l-6.058-9.113Z" transform="translate(0.113 12.456)" fill="#ffc5ff"/>
    <path id="Tracé_99" data-name="Tracé 99" d="M197.7,176.033l18.619,18.57H197.8Z" transform="translate(28.071 14.686)" fill="#fc943f"/>
    <path id="Tracé_100" data-name="Tracé 100" d="M216.363,174.449l20.392,20.342h23.2L239.908,174.4Z" transform="translate(30.789 14.449)" fill="#fc943f"/>
    <path id="Tracé_101" data-name="Tracé 101" d="M256.864,174.4l17.683,17.683V174.449Z" transform="translate(36.688 14.449)" fill="#fc943f"/>
    <rect id="Rectangle_20" data-name="Rectangle 20" width="85.364" height="20.393" transform="translate(225.872 214.167)" fill="#fff"/>
    <path id="Tracé_102" data-name="Tracé 102" d="M197.789,198.176,216.31,216.7H197.789Z" transform="translate(28.083 17.912)" fill="#fc943f"/>
    <path id="Tracé_103" data-name="Tracé 103" d="M216.363,196.505,236.755,216.9h23.2l-20.344-20.442Z" transform="translate(30.789 17.661)" fill="#fc943f"/>
    <path id="Tracé_104" data-name="Tracé 104" d="M256.864,196.456l17.683,17.733V196.505Z" transform="translate(36.688 17.661)" fill="#fc943f"/>
    <circle id="Ellipse_12" data-name="Ellipse 12" cx="7.585" cy="7.585" r="7.585" transform="translate(28.644 181.312)" fill="#ffc5ff"/>
    <path id="Tracé_105" data-name="Tracé 105" d="M155.25,169.24a5.949,5.949,0,1,0,4.215,1.743A5.957,5.957,0,0,0,155.25,169.24Zm0,10.393a4.483,4.483,0,1,1,4.483-4.483,4.483,4.483,0,0,1-4.483,4.483Z" transform="translate(21.019 13.697)"/>
    <path id="Tracé_106" data-name="Tracé 106" d="M271.583,117.227V75.211H80.958V138.95A28.527,28.527,0,0,0,64.6,180.326l-5.862-6.3a4.768,4.768,0,0,0-6.989,0l-.049.049a4.788,4.788,0,0,0,.148,6.7l.64.64-8.082,9.4a8.632,8.632,0,0,0,.246-1.969,8.389,8.389,0,1,0-5.173,7.684l-3.743,4.334h0L5,236.629l6.551,9.949H25.245l-5.419-9.165,12.068-14.038h5.123l-10.985,23.15H51.943L44.16,235.837l7.536-15.96a7.75,7.75,0,0,0-6.9-11.28h-.591L66.08,182.59A28.812,28.812,0,0,0,81,193.525V202.1H94.7L55.342,246.528h61.227V202.1H174.89l-29.653,44.43h62.016L177.6,202.1H215.23v44.43H337.244v-129.3ZM29.382,188.9a6.833,6.833,0,1,1,2,4.846,6.848,6.848,0,0,1-2-4.846ZM18,237.219l4.63,7.833H12.339l-5.516-8.324L25,215.543a7.291,7.291,0,0,0,.687,3.5,7.109,7.109,0,0,0,4.482,3.941Zm23-27.141H44.8a6.3,6.3,0,0,1,5.369,3.005,6.237,6.237,0,0,1,.2,6.157l-7.881,16.749,6.6,9.063H28.447L39.431,221.9H32.442a5.808,5.808,0,0,1-5.319-3.4,5.709,5.709,0,0,1,.887-6.255l26.55-30.885-1.626-1.625a3.322,3.322,0,0,1-.1-4.631l.049-.049a3.208,3.208,0,0,1,2.414-1.031,3.169,3.169,0,0,1,2.4,1.076l6.749,7.241Zm107.037,34.974,28.274-42.362,28.274,42.362Zm148.118-66.743a8.768,8.768,0,1,1,8.768-8.768,8.768,8.768,0,0,1-8.768,8.768ZM310.5,189.637V204.76l-15.123-15.123Zm-17.185,0,17.238,17.24V208.6H291.142L272.227,189.68h21.08Zm-46.45,25.27,18.915,18.915H244.639l-18.028-18.028v-.887Zm23.2,0,18.915,18.915H267.839l-18.915-18.915Zm-43.445,2.956,15.959,15.959H226.617V217.863ZM295.429,235.3v9.753H246.314V235.3Zm-4.334-1.478L272.18,214.907h21.132l17.238,17.239v1.719h-19.46Zm19.408-3.793L295.38,214.906H310.5Zm-64.183-16.6v-3.4h49.107v3.4Zm-.739-35.12a8.818,8.818,0,1,0-.006,0Zm1.281,11.328,18.915,18.915H244.639l-18.028-18.028v-.887Zm23.2,0,18.915,18.915H267.839l-18.915-18.915Zm-43.445,2.956,15.959,15.959H226.617Zm19.705-4.433v-8.374a10.162,10.162,0,0,0,6.206-2.66h17.579v11.035Zm23.785-90.439-10-10,10-10ZM259.074,86.687l-10-10h20Zm-1.031,1.031-10,10v-20Zm1.031,1.031,10,10h-20ZM246.561,76.688V98.756H224.493V76.688Zm-23.546,0V98.756H200.947V76.688Zm-140.581,0H199.42V98.756H82.433Zm0,23.546H270.107V175.6H253.8a10.066,10.066,0,0,0,2.02-6.058,10.246,10.246,0,1,0-20.491,0,9.958,9.958,0,0,0,2.02,6.058H116.421a28.029,28.029,0,0,0,1.527-7.635h24.777v-59.9H91.5v29.7c-.687-.049-1.375-.1-2.069-.1a27.5,27.5,0,0,0-6.994.887Zm10.54,37.682V109.543h48.273v56.991H118v-.246A28.592,28.592,0,0,0,92.97,137.915ZM62.336,166.239A27.092,27.092,0,1,1,89.428,193.33a27.092,27.092,0,0,1-27.092-27.092Zm20.1,34.431v-6.7a29.558,29.558,0,0,0,6.994.887,28.412,28.412,0,0,0,16.154-5.025L95.976,200.67Zm32.707,44.382h-56.5L96.668,202.1h.148v-.2l18.324-20.688Zm61.129-44.975-.394.591H116.618v-23.3L114.8,179.44a17.284,17.284,0,0,0,1.084-2.365h122.8a10.042,10.042,0,0,0,6.207,2.66v8.374H225.18V200.62H176.713Zm40.49,2.069h8.374v7.881h19.705v3.4H225.133V235.3h19.705v9.753H216.759Zm119.055,42.9H296.9V235.3h15.074V213.425H296.852v-3.4h15.123V188.161H296.852v-8.374a10.246,10.246,0,1,0-1.478,0v8.374H271.583V118.705h64.183V245.052Z" transform="translate(0 0)"/>
  </g>
</svg>
