<svg xmlns="http://www.w3.org/2000/svg" width="333.701" height="232.964" viewBox="0 0 333.701 232.964">
  <g id="Design" transform="translate(-5 -44.017)">
    <path id="Tracé_107" data-name="Tracé 107" d="M218.256,110.987l87.362,50.488v87.361l-87.362-50.428Z" transform="translate(32.137 10.092)" fill="#fff"/>
    <path id="Tracé_108" data-name="Tracé 108" d="M180.245,89.075l43.739,25.214v43.681l-43.739-25.214Z" transform="translate(26.408 6.79)" fill="#fff"/>
    <path id="Tracé_109" data-name="Tracé 109" d="M256.217,94.939l43.68,25.214v43.74l-43.68-25.274Z" transform="translate(37.857 7.674)" fill="#fff"/>
    <path id="Tracé_110" data-name="Tracé 110" d="M179.725,189.737H17.551l108.432,64.515h162Z" transform="translate(1.891 21.959)" fill="#fff"/>
    <path id="Tracé_111" data-name="Tracé 111" d="M88.09,118.408,78.8,83.605a8.271,8.271,0,0,1,5.8-10.126l.177-.06A8.273,8.273,0,0,1,94.9,79.22l1.124,4.2L132.367,219.55l-4.5,15.458L116.2,223.941Z" transform="translate(11.078 4.388)" fill="#39b6ff"/>
    <path id="Tracé_112" data-name="Tracé 112" d="M211.775,221.338l36.105-.533,48.771,28.765h-37.94Z" transform="translate(31.16 26.641)"/>
    <path id="Tracé_113" data-name="Tracé 113" d="M193.155,209.746l21.426,12.726L250.686,222l-22.077-12.251Z" transform="translate(28.354 24.974)" fill="#39b6ff"/>
    <path id="Tracé_114" data-name="Tracé 114" d="M175.718,199.821,195.547,211.3l35.69-.356L211.7,199.407Z" transform="translate(25.726 23.416)" fill="#ffcb00"/>
    <path id="Tracé_115" data-name="Tracé 115" d="M158.487,189.737l19.828,11.541,35.987-.414L195.48,189.737Z" transform="translate(23.13 21.959)" fill="#725dff"/>
    <path id="Tracé_116" data-name="Tracé 116" d="M73.806,137.6l-54.867,4.321L36.7,99.66a16.586,16.586,0,0,1,29.358-2.308L78.365,117.18l45.042-3.137a3.716,3.716,0,0,1,3.965,3.433v.06a3.714,3.714,0,0,1-3.433,3.965,3.716,3.716,0,0,1,3.965,3.433v.06a3.714,3.714,0,0,1-3.433,3.965,3.716,3.716,0,0,1,3.965,3.434v.059a3.714,3.714,0,0,1-3.433,3.965l-49.3,3.492Z" transform="translate(2.101 6.859)" fill="#725dff"/>
    <path id="Tracé_117" data-name="Tracé 117" d="M75.334,73.6,50.653,76.916l4.439-11.184-.533-.77-13.2-6.688s-3.492-2.25-2.545-5.208S41.6,49.574,41.6,49.574l7.458-4.027a5.346,5.346,0,0,1,4.735-.237l.711.356c2.071,1.361,2.367,3.255,2.071,3.907s-.949,14.914-.949,14.914l.356.829Z" transform="translate(5.071 0.128)" fill="#ffcb00"/>
    <path id="Tracé_118" data-name="Tracé 118" d="M66.3,131.871l37.111,40.423-17.283,37.88H60.084L75.3,179.514l-4.913.533a4.642,4.642,0,0,1-2.841-.533c-1.124-.591-2.6-1.716-2.367-3.018a12.447,12.447,0,0,0,0-1.48c.237-1.657,1.956-2.9,3.551-3.314l3.788-1.066-18.94-15.8-16.1,55.343H6.7l6.393-9.233s3.551-6.329,3.314-9.233a49.3,49.3,0,0,0-1.717-7.753s-1.42-4.912.237-8.463a28.5,28.5,0,0,1,3.492-5.742s6.1-6.511,6.569-11.246c.414-4.735-1.894-10.713-1.894-10.713s-.414-5.031,1.125-7.753a47.921,47.921,0,0,1,3.374-5.091Z" transform="translate(0.256 13.239)" fill="#ffcb00"/>
    <path id="Tracé_119" data-name="Tracé 119" d="M9.063,219.142l5.149-18.585,24.855-.533s8.463.533,10.713,6.925a42.187,42.187,0,0,1,2.367,11.779Z" transform="translate(0.612 23.509)"/>
    <path id="Tracé_120" data-name="Tracé 120" d="M56.642,219.157l5.268-19.118,22.137-.115s7.4.947,10.772,5.984S97.9,214.43,97.9,214.43v4.735Z" transform="translate(7.782 23.494)"/>
    <path id="Tracé_121" data-name="Tracé 121" d="M223.984,152.25l-43.739-25.214v43.68l43.739,25.273Z" transform="translate(26.408 12.511)" fill="#ffcb00"/>
    <path id="Tracé_122" data-name="Tracé 122" d="M223.984,76.278,180.245,51.064v43.68l43.739,25.214Z" transform="translate(26.408 1.062)" fill="#725dff"/>
    <path id="Tracé_123" data-name="Tracé 123" d="M262.3,98.558l-43.68-25.274v43.74l43.68,25.214Z" transform="translate(32.191 4.41)" fill="#39b6ff"/>
    <path id="Tracé_124" data-name="Tracé 124" d="M198.068,72.1l15.271,24.09s2.186,3.433.414,5.268-4.027.533-5.031-.237a33.838,33.838,0,0,1-3.551-4.557l-13.2-21.6Z" transform="translate(28.176 4.232)" fill="#fff"/>
    <path id="Tracé_125" data-name="Tracé 125" d="M188.387,63.917s-1.717,1.48-.414,4.617a47.88,47.88,0,0,0,4.912,7.873l5.5-2.368-4.559-8.109s-2.071-3.137-5.327-2.186" transform="translate(27.499 2.946)"/>
    <path id="Tracé_126" data-name="Tracé 126" d="M251.587,149.256,266.148,198.5l12.074,6.984-14.561-49.244Z" transform="translate(37.159 15.859)"/>
    <path id="Tracé_127" data-name="Tracé 127" d="M49.459,73.1,74.14,69.787l-3.2,8.285,2.367,6.984-5.386.356s-4.084,10.95-14.614,7.162-5.568-15.328-5.568-15.328Z" transform="translate(6.265 3.883)" fill="#fff"/>
    <circle id="Ellipse_13" data-name="Ellipse 13" cx="3.965" cy="3.965" r="3.965" transform="translate(104.376 87.52)" fill="#725dff"/>
    <circle id="Ellipse_14" data-name="Ellipse 14" cx="3.965" cy="3.965" r="3.965" transform="translate(106.744 96.162)" fill="#725dff"/>
    <circle id="Ellipse_15" data-name="Ellipse 15" cx="3.847" cy="3.847" r="3.847" transform="translate(109.171 104.922)" fill="#725dff"/>
    <path id="Tracé_128" data-name="Tracé 128" d="M84.629,92.059l3.965,15.152-19.709,4.5L60.243,97.8Z" transform="translate(8.325 7.24)" fill="#725dff"/>
    <circle id="Ellipse_16" data-name="Ellipse 16" cx="1.717" cy="1.717" r="1.717" transform="translate(67.917 81.187)"/>
    <path id="Tracé_129" data-name="Tracé 129" d="M218.846,210.808h-78.01L123.2,144.636l3.912-.3a4.582,4.582,0,0,0,4.258-4.912v-.06a4.718,4.718,0,0,0-2.13-3.61c.177-.178.354-.3.533-.474a4.681,4.681,0,0,0,1.124-3.374v-.059a4.3,4.3,0,0,0-1.6-3.137,2.117,2.117,0,0,0-.591-.414,4.778,4.778,0,0,0,1.657-3.848v-.059a4.3,4.3,0,0,0-1.6-3.137,4.685,4.685,0,0,0-3.374-1.125l-8.582.593-1.956-7.4a4.886,4.886,0,0,0,2.9-5.8,4.969,4.969,0,0,0-4.027-3.551,4,4,0,0,0,1.184-1.42,4.691,4.691,0,0,0,.473-3.67,4.97,4.97,0,0,0-4.027-3.552,4.889,4.889,0,0,0-3.019-8.7,2.4,2.4,0,0,0-.65.06l-.888-3.255a9.158,9.158,0,0,0-4.258-5.564,8.86,8.86,0,0,0-6.925-.888l-.178.06A9.153,9.153,0,0,0,88.986,88.23l2.781,10.417-22.9,5.208L68.8,103.8a17.473,17.473,0,0,0-5.445-5.564h.177a11.6,11.6,0,0,0,10.772-7.221l.356-.83,5.984-.414-2.664-7.753c.593-1.48,3.255-7.931,3.255-7.931l.356-.828-20.36-8.4L62.24,50.118a5.566,5.566,0,0,0-1.48-4.258,5.645,5.645,0,0,0-4.209-1.843,5.9,5.9,0,0,0-2.663.651l-8.17,4.321a5.7,5.7,0,0,0,.115,10.126L59.152,65.8l-6.5,16.211A11.632,11.632,0,0,0,56.2,95.629a17.786,17.786,0,0,0-3.551-.06A17.237,17.237,0,0,0,37.91,106.224l-18.3,43.562,6.214-.473-.237.236a15.783,15.783,0,0,0-2.368,15.508l.06.177a13.722,13.722,0,0,1-3.078,14.8L17.837,182.4a15.755,15.755,0,0,0-3.611,16.277l.474,1.42A13.859,13.859,0,0,1,13.055,212.7L5,224.245h8.642L8.314,243.48H53.421v-4.971a16.829,16.829,0,0,0-1.071-5.8l11.779,6.925-1.066,3.788H70.58l56.643,33.441.23.115H330.888L219.082,210.986ZM44.656,54.139a3.912,3.912,0,0,1,2.071-3.492l8.17-4.321a4.027,4.027,0,0,1,1.841-.474,4.182,4.182,0,0,1,2.9,1.244,3.584,3.584,0,0,1,1.006,2.958L59.7,64.14l-12.851-6.45a4.076,4.076,0,0,1-2.19-3.552ZM61.287,66.863v-.115L77.21,73.317l-20.065,2.6,3.788-9.233ZM54.3,90.3a9.879,9.879,0,0,1,0-7.576l2.017-4.912,22.841-2.96-2.308,5.506c-.591,1.48-.77,1.835-.473,2.131l1.894,5.622-4.795.3-.769,1.835c-.06.177-.178.356-.237.533a4.428,4.428,0,0,1-1.54.237A5.025,5.025,0,0,1,65.9,86.458v-.533H64.128a2.845,2.845,0,0,0,.06.71,6.86,6.86,0,0,0,6.806,6.156h.237A9.842,9.842,0,0,1,63.6,96.4a9.435,9.435,0,0,1-3.788-.769l-.177-.06A9.5,9.5,0,0,1,54.3,90.3ZM223.759,235.608h33.5l18.526,10.95h-33.5Zm-3.018-1.776-16.34-9.647h33.5l16.34,9.647ZM207.9,217.851l-6.688,4.5L185.878,213.3Zm-16.277-5.267h24.09l-5.682,3.847Zm18.762,5.741,19.355,4.027H204.4Zm2.013-1.361,6.214-4.2,14.324,8.463Zm-69.9,7.043L138.466,237.8l-10.356-9.884-21.9-82.035,15.151-1.064ZM77.21,147.891l27.167-1.956L121.66,210.8h-29l12.014-25.154L68.154,145.939l7.28-.593Zm38.768-39.952a3.049,3.049,0,0,1-2.186,3.788,3.463,3.463,0,0,1-.83.115,3.133,3.133,0,0,1-2.666-4.672,2.9,2.9,0,0,1,1.894-1.421,3.522,3.522,0,0,1,.828-.115,3.093,3.093,0,0,1,2.96,2.3ZM113.669,99.3a3.03,3.03,0,0,1-.3,2.367,2.9,2.9,0,0,1-1.894,1.421,3.522,3.522,0,0,1-.83.115,3.107,3.107,0,0,1-.769-6.1,3.462,3.462,0,0,1,.828-.115A3.093,3.093,0,0,1,113.669,99.3Zm-2.308-8.642a3.051,3.051,0,0,1-2.186,3.788,3.522,3.522,0,0,1-.83.115,3.134,3.134,0,0,1-2.663-4.676,2.9,2.9,0,0,1,1.894-1.42,3.462,3.462,0,0,1,.828-.115,3.222,3.222,0,0,1,2.956,2.308ZM95.913,78.7l.177-.06a7.427,7.427,0,0,1,9.056,5.209l.887,3.314A5.123,5.123,0,0,0,104.139,89a4.7,4.7,0,0,0-.473,3.67,4.969,4.969,0,0,0,4.027,3.551,4.842,4.842,0,0,0-1.663,5.091,4.969,4.969,0,0,0,4.027,3.551,4.021,4.021,0,0,0-1.184,1.42,4.7,4.7,0,0,0-.473,3.67,4.866,4.866,0,0,0,4.675,3.611h.06l1.894,7.221-15.152,1.066L90.764,87.757A7.391,7.391,0,0,1,95.913,78.7Zm2.13,43.266-17.164,1.184-2.25-3.668,17.7-4.027Zm-5.8-21.6L95.79,113.74l-18.23,4.143L69.87,105.4Zm-52.678,6.511a15.685,15.685,0,0,1,27.759-2.186l12.607,20.3,45.574-3.2a2.7,2.7,0,0,1,2.071.71,2.8,2.8,0,0,1,.947,1.956v.06a2.836,2.836,0,0,1-2.6,3.018L108.7,128.723l.115,1.776,17.224-1.184a2.7,2.7,0,0,1,2.071.71,2.8,2.8,0,0,1,.947,1.956v.059a2.7,2.7,0,0,1-.71,2.071,2.8,2.8,0,0,1-1.956.946l-17.224,1.184.115,1.776,17.234-1.192a2.835,2.835,0,0,1,3.018,2.6v.059a2.836,2.836,0,0,1-2.6,3.019L78.1,146,59.512,119.6l-1.48,1.006L74.25,143.628l-51.908,4.084ZM14.647,213.767a15.757,15.757,0,0,0,1.894-14.205l-.473-1.42a14.011,14.011,0,0,1,3.2-14.442l2.368-2.367a15.683,15.683,0,0,0,3.433-16.685l-.059-.177a13.859,13.859,0,0,1,2.071-13.732l1.243-1.538,37.644-2.96,36.637,39.834L85.2,222.585H61.7l15.034-31.192-6.569,1.066a3.3,3.3,0,0,1-2.545-.591,3.42,3.42,0,0,1-1.42-2.186v-.06a3.359,3.359,0,0,1,2.663-3.907l5.5-1.006L54.777,167.246l2.186-7.695-1.716-.473L36.962,222.528H8.551Zm39.6-44.627,16.218,14.384-1.956.356a5.188,5.188,0,0,0-4.085,5.978v.059a5.324,5.324,0,0,0,2.131,3.374,5.224,5.224,0,0,0,3.848.888l3.2-.533-8.285,17.224h-23.2Zm-2.367,72.624H10.859L15.713,224.3h21.9a14.269,14.269,0,0,1,14.269,14.269v3.2Zm-.888-11.956a15.888,15.888,0,0,0-12.2-7.222l2.9-9.943H64.543L58.92,224.3h9.706l-3.79,13.673Zm19.415-5.5H90.468a14.269,14.269,0,0,1,14.269,14.269v3.2H65.5Zm3.847,19.236h32.31v-4.972a16.052,16.052,0,0,0-16.04-16.04H87.153l4.735-9.884h30.3l4.32,16.218,12.844,12.25.178-.591a61.814,61.814,0,0,0,12.2,2.841,12.658,12.658,0,0,0,5.089,10,29.114,29.114,0,0,0,10.356,4.735,88.833,88.833,0,0,0,23.676,3.2,85,85,0,0,0,15.981-1.48l-.3-1.717a86.927,86.927,0,0,1-38.828-1.716A26.654,26.654,0,0,1,158,251.943a11.094,11.094,0,0,1-4.439-8.4,62.812,62.812,0,0,0,30.008-3.847,19.572,19.572,0,0,0,6.629-4.027,5.838,5.838,0,0,0,1.835-3.137,5.27,5.27,0,0,0-2.071-4.913,10.573,10.573,0,0,0-4.676-1.834c-6.925-1.243-14.678.356-23.024,4.735a25.223,25.223,0,0,0-6.806,4.794,13.18,13.18,0,0,0-3.492,6.214,59.033,59.033,0,0,1-11.9-2.841l4.258-14.8-3.018-11.423H181.38l106.184,62.739H128.111Zm79.489-1.657a11.644,11.644,0,0,1,2.96-5.209,23.5,23.5,0,0,1,6.392-4.438c7.99-4.2,15.33-5.742,21.84-4.558a8.561,8.561,0,0,1,3.912,1.48,3.508,3.508,0,0,1,1.413,3.2,4.3,4.3,0,0,1-1.361,2.186,17.9,17.9,0,0,1-6.1,3.61,60.987,60.987,0,0,1-29.063,3.734Zm137.316,33.44-45.752-26.99h33.5l45.753,27.049H291.055Z"/>
    <path id="Tracé_130" data-name="Tracé 130" d="M229.24,128.519l9.47,5.445.887-1.538-12.133-6.985v12.311h1.776Z" transform="translate(33.524 12.27)"/>
    <path id="Tracé_131" data-name="Tracé 131" d="M229.24,173.329h-1.776v11.3l11.246,6.511.887-1.538-10.357-5.978Z" transform="translate(33.524 19.487)"/>
    <path id="Tracé_132" data-name="Tracé 132" d="M238.649,180.138l-4.794-2.782-.888,1.54,12.2,7.043.888-1.54-5.859-3.374,5.622-11.66,16.4,9.47,6.038,20.42,14.323,8.285-15.391-51.729-13.2-7.635ZM265.7,156.995l13.85,46.758-9.825-5.682L255.873,151.31Zm-4.258,19.355-14.858-8.584,7.635-15.862Z" transform="translate(34.353 15.696)"/>
    <path id="Tracé_133" data-name="Tracé 133" d="M284.784,214.923l-9.47-5.5-.888,1.538L286.559,218v-12.37h-1.776Z" transform="translate(40.601 24.354)"/>
    <path id="Tracé_134" data-name="Tracé 134" d="M284.784,170.767h1.776v-11.3l-11.246-6.452-.888,1.54,10.359,5.918Z" transform="translate(40.601 16.425)"/>
    <path id="Tracé_135" data-name="Tracé 135" d="M268.661,101.22h0L224.98,76.006h0l-45.452-26.28V182.9l43.68,25.214h0L312.4,259.607V126.493Zm-1.776,1.066v41.609l-29.949-17.282-11.956-6.926V78.018ZM181.24,94.472V52.8l41.9,24.208V118.68l-20.893-12.074Zm0,43.682V96.544l20.953,12.074,20.952,12.075v41.667l-35.513-20.538Zm0,43.739V140.225l5.564,3.2,36.341,21.012V206.1ZM310.566,171.18v85.349l-85.644-49.418V121.758l41.9,24.207h0l15.152,8.76Zm-41.9-26.22V103.292l41.9,24.207v41.669Z" transform="translate(26.3 0.86)"/>
    <path id="Tracé_136" data-name="Tracé 136" d="M214.5,96.971l-14.326-22.61,1.657-.71-.71-1.658-1.956.83L195.5,67.027C193.963,64.595,191.6,63,189.643,63a3.077,3.077,0,0,0-1.243.237h-.059a2.919,2.919,0,0,0-1.6,1.834,6.981,6.981,0,0,0,1.183,5.445l3.552,5.565-1.658.71.711,1.657,1.956-.828,14.5,22.906c1.538,2.427,3.907,4.027,5.859,4.027a3.1,3.1,0,0,0,1.243-.237h.06a2.922,2.922,0,0,0,1.6-1.835,7.342,7.342,0,0,0-1.244-5.51Zm-25.1-27.464a5.512,5.512,0,0,1-1.006-3.965,1.036,1.036,0,0,1,.591-.71h.06a1.7,1.7,0,0,1,.533-.115c1.183,0,3.018,1.124,4.38,3.2l3.551,5.564-4.38,1.836Zm24.564,32.376a1.036,1.036,0,0,1-.593.71h-.059c-1.066.414-3.315-.651-4.912-3.137l-14.328-22.61,4.38-1.834,14.5,22.906A5.187,5.187,0,0,1,213.97,101.883Z" transform="translate(27.367 2.861)"/>
    <path id="Tracé_137" data-name="Tracé 137" d="M153.123,86.715H154.9V76.949H164.6V75.173H154.9V65.466h-1.776v9.707h-9.707v1.776h9.707Z" transform="translate(20.859 3.232)"/>
    <path id="Tracé_138" data-name="Tracé 138" d="M141.158,160.687a5.149,5.149,0,1,0-5.149-5.149A5.149,5.149,0,0,0,141.158,160.687Zm0-8.582a3.374,3.374,0,1,1-3.374,3.373,3.372,3.372,0,0,1,3.374-3.373Z" transform="translate(19.742 16.03)"/>
  </g>
</svg>
