<svg xmlns="http://www.w3.org/2000/svg" width="57" height="57" viewBox="0 0 57 57">
  <g id="Groupe_145" data-name="Groupe 145" transform="translate(-233.5 -350)">
    <circle id="Ellipse_26" data-name="Ellipse 26" cx="28.5" cy="28.5" r="28.5" transform="translate(233.5 350)"/>
    <g id="primary_Logo" data-name="primary Logo" transform="translate(246.329 364.99)">
      <g id="Groupe_125" data-name="Groupe 125" transform="translate(0 0.01)">
        <path id="Tracé_1985" data-name="Tracé 1985" d="M151.637,5.008,141.708.045a.335.335,0,0,0-.144-.035h-.01a.36.36,0,0,0-.306.166l-6.119,9.944,6.831,11.1,9.77-15.88A.236.236,0,0,0,151.637,5.008Z" transform="translate(-120.524 -0.01)" fill="#fff"/>
        <path id="Tracé_1986" data-name="Tracé 1986" d="M105.2,61.2V71.915l9.524,4.763Z" transform="translate(-93.829 -54.586)" fill="#fff"/>
        <path id="Tracé_1987" data-name="Tracé 1987" d="M201.01,79.262l8.747,4.373a.552.552,0,0,0,.868-.536V63.64L201.01,79.264Z" transform="translate(-179.283 -56.762)" fill="#fff"/>
        <path id="Tracé_1988" data-name="Tracé 1988" d="M10.318,6.031,1.158,1.45.578,1.162A.524.524,0,0,0,.344,1.1a.313.313,0,0,0-.25.113A.47.47,0,0,0,0,1.519V22.426a1.15,1.15,0,0,0,.578.936l9,4.5a.792.792,0,0,0,.352.092c.3,0,.516-.235.516-.628V6.24a.233.233,0,0,0-.129-.209Z" transform="translate(0 -0.982)" fill="#fff"/>
      </g>
    </g>
  </g>
</svg>
