<svg xmlns="http://www.w3.org/2000/svg" width="117" height="117" viewBox="0 0 117 117">
  <g id="Groupe_1128" data-name="Groupe 1128" transform="translate(-1157.5 -315.5)">
    <path id="Fill_1" data-name="Fill 1" d="M14.85,0H34.658a14.911,14.911,0,0,1,14.85,14.976V34.951a14.911,14.911,0,0,1-14.85,14.976H14.85A14.911,14.911,0,0,1,0,34.951V14.976A14.911,14.911,0,0,1,14.85,0Z" transform="translate(1224.992 315.5)" fill="#909090"/>
    <g id="Combined_Shape" data-name="Combined Shape" transform="translate(1157.5 315.5)">
      <path id="Fill_4" data-name="Fill 4" d="M14.85,0H34.658a14.911,14.911,0,0,1,14.85,14.976V34.951a14.911,14.911,0,0,1-14.85,14.976H14.85A14.911,14.911,0,0,1,0,34.951V14.976A14.911,14.911,0,0,1,14.85,0Z" transform="translate(0 0)" fill="#39b6ff"/>
      <path id="Fill_7" data-name="Fill 7" d="M14.85,0H34.658a14.911,14.911,0,0,1,14.85,14.976V34.951a14.915,14.915,0,0,1-14.85,14.976H14.85A14.915,14.915,0,0,1,0,34.951V14.976A14.911,14.911,0,0,1,14.85,0Z" transform="translate(0 67.073)" fill="#39b6ff"/>
      <path id="Fill_10" data-name="Fill 10" d="M14.85,0H34.658a14.911,14.911,0,0,1,14.85,14.976V34.951a14.915,14.915,0,0,1-14.85,14.976H14.85A14.915,14.915,0,0,1,0,34.951V14.976A14.911,14.911,0,0,1,14.85,0Z" transform="translate(67.491 67.073)" fill="#39b6ff"/>
    </g>
  </g>
</svg>
